<svg width="29" height="37" viewBox="0 0 29 37" fill="none" xmlns="http://www.w3.org/2000/svg">
<path id="Vector" fill-rule="evenodd" clip-rule="evenodd" d="M20.7916 24.374C22.3889 21.8067 23.344 18.5502 23.344 15.0068C23.344 6.71878 18.1182 0 11.672 0C5.22572 0 0 6.71878 0 15.0068C0 23.2948 5.22572 30.0137 11.672 30.0137C14.4279 30.0137 16.9607 28.7857 18.9576 26.732L26.3046 36.1783C26.811 36.8295 27.6322 36.8295 28.1387 36.1783C28.6452 35.5272 28.6452 34.4713 28.1387 33.8202L20.7916 24.374ZM11.672 26.6955C6.65104 26.6955 2.58076 21.4623 2.58076 15.0068C2.58076 8.55133 6.65104 3.31812 11.672 3.31812C16.6929 3.31812 20.7632 8.55133 20.7632 15.0068C20.7632 21.4623 16.6929 26.6955 11.672 26.6955Z" fill="#363237" fill-opacity="0.58"/>
</svg>
